#N canvas 312 196 485 397 10;
#X obj 19 1 cnv 16 40 16 empty pddp_dsp_canvas dsp 7 8 0 14 -24198
-33289 0;
#X obj 0 0 tgl 18 0 THIS_IS_HERE_TO_GET_RID_OF_THE_OUTLET GLOBAL_PDDP_DSP_TOGGLE
empty 1 8 1 9 -24198 -33289 -33289 1 1;
#X obj 82 236 select 0 1;
#X msg 115 258 76;
#X msg 80 258 10;
#X obj 81 37 route dsp;
#X msg 1 200 \; pd dsp \$1;
#X text 239 358 released under the GNU GPL;
#X text 22 344 (C) Copyright 2005 Hans-Christoph Steiner <hans@at.or.at>
;
#X msg 109 199 \; GLOBAL_PDDP_DSP_TOGGLE set \$1;
#X obj 194 133 float;
#X obj 82 135 float;
#X obj 81 16 receive pd;
#X obj 194 11 receive GLOBAL_PDDP_DSP;
#X obj 194 80 bang;
#X msg 99 288 \; GLOBAL_PDDP_DSP_TOGGLE color \$1 12 12 \; pddp_dsp_canvas
color \$1 12 12;
#X obj 239 39 loadbang;
#X obj 338 80 send GLOBAL_PDDP_DSP;
#X obj 194 100 spigot 0;
#X msg 239 80 1;
#X obj 239 60 trigger bang bang;
#X connect 1 0 6 0;
#X connect 1 0 11 0;
#X connect 2 0 4 0;
#X connect 2 1 3 0;
#X connect 3 0 15 0;
#X connect 4 0 15 0;
#X connect 5 0 11 0;
#X connect 5 0 10 1;
#X connect 10 0 9 0;
#X connect 10 0 6 0;
#X connect 11 0 9 0;
#X connect 11 0 2 0;
#X connect 12 0 5 0;
#X connect 13 0 14 0;
#X connect 14 0 18 0;
#X connect 16 0 20 0;
#X connect 18 0 10 0;
#X connect 19 0 18 1;
#X connect 20 0 19 0;
#X connect 20 1 17 0;
#X coords 0 0 1 1 60 18 1 0 0;
