#N canvas 34 121 1265 860 10;
#X obj 159 71 bng 15 250 50 0 empty empty empty 17 7 0 10 -262144 -1
-1;
#X obj 106 761 list trim;
#X obj 106 739 list prepend send;
#X obj 106 717 oscformat table;
#X obj 157 27 tgl 15 0 empty empty empty 17 7 0 10 -262144 -1 -1 1
1;
#X obj 194 142 t b b b b b b b b b b b b b b b b b b b b b b b b b
b b b b b b b b b b b b b b b b b b b b b b b b b b b b b b b b b b
b b b b b b b b b b b b b b b b b b b b b b b b b b b b b b b b b b
b b b b b b b b b b b b b b b b b b b b b b b b b b b b b b b b b b
b, f 249;
#X obj 106 598 pack 0 0 0 0 0 0 0 0 0 0 0 0 0 0 0 0 0 0 0 0 0 0 0 0
0 0 0 0 0 0 0 0 0 0 0 0 0 0 0 0 0 0 0 0 0 0 0 0 0 0 0 0 0 0 0 0 0 0
0 0 0 0 0 0 0 0 0 0 0 0 0 0 0 0 0 0 0 0 0 0 0 0 0 0 0 0 0 0 0 0 0 0
0 0 0 0 0 0 0 0 0 0 0 0 0 0 0 0 0 0 0 0 0 0 0 0 0 0 0 0 0 0 0 0 0 0
0 0, f 251;
#X msg 10 358 0;
#X obj 10 381 tabread ar6;
#X obj 48 381 tabread ar6;
#X obj 85 381 tabread ar6;
#X obj 123 381 tabread ar6;
#X obj 161 381 tabread ar6;
#X obj 199 381 tabread ar6;
#X obj 236 381 tabread ar6;
#X obj 274 381 tabread ar6;
#X obj 311 381 tabread ar6;
#X obj 349 381 tabread ar6;
#X obj 386 381 tabread ar6;
#X obj 424 381 tabread ar6;
#X obj 462 381 tabread ar6;
#X obj 500 381 tabread ar6;
#X obj 537 381 tabread ar6;
#X obj 575 381 tabread ar6;
#X obj 613 381 tabread ar6;
#X obj 651 381 tabread ar6;
#X obj 688 381 tabread ar6;
#X obj 726 381 tabread ar6;
#X obj 764 381 tabread ar6;
#X obj 802 381 tabread ar6;
#X obj 839 381 tabread ar6;
#X obj 877 381 tabread ar6;
#X obj 914 381 tabread ar6;
#X obj 952 381 tabread ar6;
#X obj 989 381 tabread ar6;
#X obj 1027 381 tabread ar6;
#X obj 1065 381 tabread ar6;
#X obj 1103 381 tabread ar6;
#X obj 1140 381 tabread ar6;
#X obj 1178 381 tabread ar6;
#X msg 48 358 1;
#X msg 85 358 2;
#X msg 123 358 3;
#X msg 161 358 4;
#X msg 199 358 5;
#X msg 236 358 6;
#X msg 274 358 7;
#X msg 311 358 8;
#X msg 349 358 9;
#X msg 386 358 10;
#X msg 424 358 11;
#X msg 462 358 12;
#X msg 500 358 13;
#X msg 537 358 14;
#X msg 575 358 15;
#X msg 613 358 16;
#X msg 651 358 17;
#X msg 688 358 18;
#X msg 726 358 19;
#X msg 764 358 20;
#X msg 802 358 21;
#X msg 839 358 22;
#X msg 877 358 23;
#X msg 914 358 24;
#X msg 952 358 25;
#X msg 989 358 26;
#X msg 1027 358 27;
#X msg 1065 358 28;
#X msg 1103 358 29;
#X msg 1140 358 30;
#X msg 1178 358 31;
#X obj 10 507 tabread ar6;
#X obj 48 507 tabread ar6;
#X obj 85 507 tabread ar6;
#X obj 123 507 tabread ar6;
#X obj 161 507 tabread ar6;
#X obj 199 507 tabread ar6;
#X obj 236 507 tabread ar6;
#X obj 274 507 tabread ar6;
#X obj 311 507 tabread ar6;
#X obj 349 507 tabread ar6;
#X obj 386 507 tabread ar6;
#X obj 424 507 tabread ar6;
#X obj 462 507 tabread ar6;
#X obj 500 507 tabread ar6;
#X obj 537 507 tabread ar6;
#X obj 575 507 tabread ar6;
#X obj 613 507 tabread ar6;
#X obj 651 507 tabread ar6;
#X obj 688 507 tabread ar6;
#X obj 726 507 tabread ar6;
#X obj 764 507 tabread ar6;
#X obj 802 507 tabread ar6;
#X obj 839 507 tabread ar6;
#X obj 877 507 tabread ar6;
#X obj 914 507 tabread ar6;
#X obj 952 507 tabread ar6;
#X obj 989 507 tabread ar6;
#X obj 1027 507 tabread ar6;
#X obj 1065 507 tabread ar6;
#X obj 1103 507 tabread ar6;
#X obj 1140 507 tabread ar6;
#X obj 1178 507 tabread ar6;
#X msg 10 484 32;
#X msg 48 484 33;
#X msg 85 484 34;
#X msg 123 484 35;
#X msg 161 484 36;
#X msg 199 484 37;
#X msg 236 484 38;
#X msg 274 484 39;
#X msg 311 484 40;
#X msg 349 484 41;
#X msg 386 484 42;
#X msg 424 484 43;
#X msg 462 484 44;
#X msg 500 484 45;
#X msg 537 484 46;
#X msg 575 484 47;
#X msg 613 484 48;
#X msg 651 484 49;
#X msg 688 484 50;
#X msg 726 484 51;
#X msg 764 484 52;
#X msg 802 484 53;
#X msg 839 484 54;
#X msg 877 484 55;
#X msg 914 484 56;
#X msg 952 484 57;
#X msg 989 484 58;
#X msg 1027 484 59;
#X msg 1065 484 60;
#X msg 1103 484 61;
#X msg 1140 484 62;
#X msg 1178 484 63;
#X obj 1310 380 tabread ar6;
#X obj 1348 380 tabread ar6;
#X obj 1385 380 tabread ar6;
#X obj 1423 380 tabread ar6;
#X obj 1461 380 tabread ar6;
#X obj 1499 380 tabread ar6;
#X obj 1536 380 tabread ar6;
#X obj 1574 380 tabread ar6;
#X obj 1611 380 tabread ar6;
#X obj 1649 380 tabread ar6;
#X obj 1686 380 tabread ar6;
#X obj 1724 380 tabread ar6;
#X obj 1762 380 tabread ar6;
#X obj 1800 380 tabread ar6;
#X obj 1837 380 tabread ar6;
#X obj 1875 380 tabread ar6;
#X obj 1913 380 tabread ar6;
#X obj 1951 380 tabread ar6;
#X obj 1988 380 tabread ar6;
#X obj 2026 380 tabread ar6;
#X obj 2064 380 tabread ar6;
#X obj 2102 380 tabread ar6;
#X obj 2139 380 tabread ar6;
#X obj 2177 380 tabread ar6;
#X obj 2214 380 tabread ar6;
#X obj 2252 380 tabread ar6;
#X obj 2289 380 tabread ar6;
#X obj 2327 380 tabread ar6;
#X obj 2365 380 tabread ar6;
#X obj 2403 380 tabread ar6;
#X obj 2440 380 tabread ar6;
#X obj 2478 380 tabread ar6;
#X msg 1310 357 64;
#X msg 1348 357 65;
#X msg 1385 357 66;
#X msg 1423 357 67;
#X msg 1461 357 68;
#X msg 1499 357 69;
#X msg 1536 357 70;
#X msg 1574 357 71;
#X msg 1611 357 72;
#X msg 1649 357 73;
#X msg 1686 357 74;
#X msg 1724 357 75;
#X msg 1762 357 76;
#X msg 1800 357 77;
#X msg 1837 357 78;
#X msg 1875 357 79;
#X msg 1913 357 80;
#X msg 1951 357 81;
#X msg 1988 357 82;
#X msg 2026 357 83;
#X msg 2064 357 84;
#X msg 2102 357 85;
#X msg 2139 357 86;
#X msg 2177 357 87;
#X msg 2214 357 88;
#X msg 2252 357 89;
#X msg 2289 357 90;
#X msg 2327 357 91;
#X msg 2365 357 92;
#X msg 2403 357 93;
#X msg 2440 357 94;
#X msg 2478 357 95;
#X obj 1307 501 tabread ar6;
#X obj 1345 501 tabread ar6;
#X obj 1382 501 tabread ar6;
#X obj 1420 501 tabread ar6;
#X obj 1458 501 tabread ar6;
#X obj 1496 501 tabread ar6;
#X obj 1533 501 tabread ar6;
#X obj 1571 501 tabread ar6;
#X obj 1608 501 tabread ar6;
#X obj 1646 501 tabread ar6;
#X obj 1683 501 tabread ar6;
#X obj 1721 501 tabread ar6;
#X obj 1759 501 tabread ar6;
#X obj 1797 501 tabread ar6;
#X obj 1834 501 tabread ar6;
#X obj 1872 501 tabread ar6;
#X obj 1910 501 tabread ar6;
#X obj 1948 501 tabread ar6;
#X obj 1985 501 tabread ar6;
#X obj 2023 501 tabread ar6;
#X obj 2061 501 tabread ar6;
#X obj 2099 501 tabread ar6;
#X obj 2136 501 tabread ar6;
#X obj 2174 501 tabread ar6;
#X obj 2211 501 tabread ar6;
#X obj 2249 501 tabread ar6;
#X obj 2286 501 tabread ar6;
#X obj 2324 501 tabread ar6;
#X obj 2362 501 tabread ar6;
#X obj 2400 501 tabread ar6;
#X obj 2437 501 tabread ar6;
#X obj 2475 501 tabread ar6;
#X msg 1307 478 96;
#X msg 1345 478 97;
#X msg 1382 478 98;
#X msg 1420 478 99;
#X msg 1458 478 100;
#X msg 1496 478 101;
#X msg 1533 478 102;
#X msg 1571 478 103;
#X msg 1608 478 104;
#X msg 1646 478 105;
#X msg 1683 478 106;
#X msg 1721 478 107;
#X msg 1759 478 108;
#X msg 1797 478 109;
#X msg 1834 478 110;
#X msg 1872 478 111;
#X msg 1910 478 112;
#X msg 1948 478 113;
#X msg 1985 478 114;
#X msg 2023 478 115;
#X msg 2061 478 116;
#X msg 2099 478 117;
#X msg 2136 478 118;
#X msg 2174 478 119;
#X msg 2211 478 120;
#X msg 2249 478 121;
#X msg 2286 478 122;
#X msg 2324 478 123;
#X msg 2362 478 124;
#X msg 2400 478 125;
#X msg 2437 478 126;
#X msg 2475 478 127;
#N canvas 0 50 450 250 (subpatch) 0;
#X array ar6 126 float 3;
#A 0 -0.0106197 0.0520453 0.114505 0.176516 0.237833 0.298216 0.357428
0.415237 0.471417 0.525737 0.577992 0.627978 0.675496 0.720363 0.7624
0.801444 0.83734 0.869949 0.899131 0.924778 0.946794 0.965092 0.979599
0.99026 0.997033 0.99989 0.998821 0.993821 0.984911 0.972134 0.955539
0.935192 0.911173 0.883575 0.852508 0.818093 0.78046 0.739754 0.696144
0.649801 0.600906 0.549651 0.496238 0.440875 0.383781 0.325178 0.265294
0.204368 0.142641 0.0803539 0.0177513 -0.0449212 -0.107418 -0.169493
-0.230903 -0.291403 -0.350758 -0.408735 -0.465106 -0.519651 -0.572155
-0.622413 -0.670226 -0.715409 -0.757774 -0.79716 -0.833414 -0.866396
-0.895975 -0.922036 -0.944476 -0.963207 -0.978156 -0.989257 -0.996464
-0.999758 -0.999126 -0.994571 -0.98611 -0.973777 -0.957619 -0.937701
-0.914097 -0.886892 -0.856204 -0.822155 -0.784877 -0.744517 -0.701233
-0.655196 -0.606585 -0.555591 -0.502407 -0.44725 -0.390337 -0.331892
-0.272144 -0.211327 -0.14968 -0.0874447 -0.0248652 0.0378125 0.100341
0.162475 0.22397 0.284586 0.344084 0.402231 0.458799 0.513566 0.566313
0.61683 0.664925 0.710409 0.753102 0.792838 0.829461 0.862827 0.892805
0.919272 0.94212 0.961267 0.97664 0.988177 0.995834 0.99958;
#X coords 0 -1 126 1 200 140 1 0 0;
#X restore 911 672 graph;
#X obj 157 8 loadbang;
#X obj 157 45 metro 150;
#X obj 318 42 osc~ 440;
#X obj 318 97 tabwrite~ ar6;
#X obj 410 44 bng 15 250 50 0 empty empty empty 17 7 0 10 -262144 -1
-1;
#X obj 49 133 loadbang;
#X msg 49 160 \; pd dsp 1;
#X obj 511 28 controller_read;
#X obj 501 738 network_postoffice;
#X obj 106 783 s network;
#X connect 0 0 5 0;
#X connect 0 0 267 0;
#X connect 1 0 273 0;
#X connect 2 0 1 0;
#X connect 3 0 2 0;
#X connect 4 0 265 0;
#X connect 5 0 262 0;
#X connect 5 1 261 0;
#X connect 5 2 260 0;
#X connect 5 3 259 0;
#X connect 5 4 258 0;
#X connect 5 5 257 0;
#X connect 5 6 256 0;
#X connect 5 7 255 0;
#X connect 5 8 254 0;
#X connect 5 9 253 0;
#X connect 5 10 252 0;
#X connect 5 11 251 0;
#X connect 5 12 250 0;
#X connect 5 13 249 0;
#X connect 5 14 248 0;
#X connect 5 15 247 0;
#X connect 5 16 246 0;
#X connect 5 17 245 0;
#X connect 5 18 244 0;
#X connect 5 19 243 0;
#X connect 5 20 242 0;
#X connect 5 21 241 0;
#X connect 5 22 240 0;
#X connect 5 23 239 0;
#X connect 5 24 238 0;
#X connect 5 25 237 0;
#X connect 5 26 236 0;
#X connect 5 27 235 0;
#X connect 5 28 234 0;
#X connect 5 29 233 0;
#X connect 5 30 232 0;
#X connect 5 31 231 0;
#X connect 5 32 198 0;
#X connect 5 33 197 0;
#X connect 5 34 196 0;
#X connect 5 35 195 0;
#X connect 5 36 194 0;
#X connect 5 37 193 0;
#X connect 5 38 192 0;
#X connect 5 39 191 0;
#X connect 5 40 190 0;
#X connect 5 41 189 0;
#X connect 5 42 188 0;
#X connect 5 43 187 0;
#X connect 5 44 186 0;
#X connect 5 45 185 0;
#X connect 5 46 184 0;
#X connect 5 47 183 0;
#X connect 5 48 182 0;
#X connect 5 49 181 0;
#X connect 5 50 180 0;
#X connect 5 51 179 0;
#X connect 5 52 178 0;
#X connect 5 53 177 0;
#X connect 5 54 176 0;
#X connect 5 55 175 0;
#X connect 5 56 174 0;
#X connect 5 57 173 0;
#X connect 5 58 172 0;
#X connect 5 59 171 0;
#X connect 5 60 170 0;
#X connect 5 61 169 0;
#X connect 5 62 168 0;
#X connect 5 63 167 0;
#X connect 5 64 134 0;
#X connect 5 65 133 0;
#X connect 5 66 132 0;
#X connect 5 67 131 0;
#X connect 5 68 130 0;
#X connect 5 69 129 0;
#X connect 5 70 128 0;
#X connect 5 71 127 0;
#X connect 5 72 126 0;
#X connect 5 73 125 0;
#X connect 5 74 124 0;
#X connect 5 75 123 0;
#X connect 5 76 122 0;
#X connect 5 77 121 0;
#X connect 5 78 120 0;
#X connect 5 79 119 0;
#X connect 5 80 118 0;
#X connect 5 81 117 0;
#X connect 5 82 116 0;
#X connect 5 83 115 0;
#X connect 5 84 114 0;
#X connect 5 85 113 0;
#X connect 5 86 112 0;
#X connect 5 87 111 0;
#X connect 5 88 110 0;
#X connect 5 89 109 0;
#X connect 5 90 108 0;
#X connect 5 91 107 0;
#X connect 5 92 106 0;
#X connect 5 93 105 0;
#X connect 5 94 104 0;
#X connect 5 95 103 0;
#X connect 5 96 70 0;
#X connect 5 97 69 0;
#X connect 5 98 68 0;
#X connect 5 99 67 0;
#X connect 5 100 66 0;
#X connect 5 101 65 0;
#X connect 5 102 64 0;
#X connect 5 103 63 0;
#X connect 5 104 62 0;
#X connect 5 105 61 0;
#X connect 5 106 60 0;
#X connect 5 107 59 0;
#X connect 5 108 58 0;
#X connect 5 109 57 0;
#X connect 5 110 56 0;
#X connect 5 111 55 0;
#X connect 5 112 54 0;
#X connect 5 113 53 0;
#X connect 5 114 52 0;
#X connect 5 115 51 0;
#X connect 5 116 50 0;
#X connect 5 117 49 0;
#X connect 5 118 48 0;
#X connect 5 119 47 0;
#X connect 5 120 46 0;
#X connect 5 121 45 0;
#X connect 5 122 44 0;
#X connect 5 123 43 0;
#X connect 5 124 42 0;
#X connect 5 125 41 0;
#X connect 5 126 40 0;
#X connect 5 127 7 0;
#X connect 6 0 3 0;
#X connect 7 0 8 0;
#X connect 8 0 6 0;
#X connect 9 0 6 1;
#X connect 10 0 6 2;
#X connect 11 0 6 3;
#X connect 12 0 6 4;
#X connect 13 0 6 5;
#X connect 14 0 6 6;
#X connect 15 0 6 7;
#X connect 16 0 6 8;
#X connect 17 0 6 9;
#X connect 18 0 6 10;
#X connect 19 0 6 11;
#X connect 20 0 6 12;
#X connect 21 0 6 13;
#X connect 22 0 6 14;
#X connect 23 0 6 15;
#X connect 24 0 6 16;
#X connect 25 0 6 17;
#X connect 26 0 6 18;
#X connect 27 0 6 19;
#X connect 28 0 6 20;
#X connect 29 0 6 21;
#X connect 30 0 6 22;
#X connect 31 0 6 23;
#X connect 32 0 6 24;
#X connect 33 0 6 25;
#X connect 34 0 6 26;
#X connect 35 0 6 27;
#X connect 36 0 6 28;
#X connect 37 0 6 29;
#X connect 38 0 6 30;
#X connect 39 0 6 31;
#X connect 40 0 9 0;
#X connect 41 0 10 0;
#X connect 42 0 11 0;
#X connect 43 0 12 0;
#X connect 44 0 13 0;
#X connect 45 0 14 0;
#X connect 46 0 15 0;
#X connect 47 0 16 0;
#X connect 48 0 17 0;
#X connect 49 0 18 0;
#X connect 50 0 19 0;
#X connect 51 0 20 0;
#X connect 52 0 21 0;
#X connect 53 0 22 0;
#X connect 54 0 23 0;
#X connect 55 0 24 0;
#X connect 56 0 25 0;
#X connect 57 0 26 0;
#X connect 58 0 27 0;
#X connect 59 0 28 0;
#X connect 60 0 29 0;
#X connect 61 0 30 0;
#X connect 62 0 31 0;
#X connect 63 0 32 0;
#X connect 64 0 33 0;
#X connect 65 0 34 0;
#X connect 66 0 35 0;
#X connect 67 0 36 0;
#X connect 68 0 37 0;
#X connect 69 0 38 0;
#X connect 70 0 39 0;
#X connect 71 0 6 32;
#X connect 72 0 6 33;
#X connect 73 0 6 34;
#X connect 74 0 6 35;
#X connect 75 0 6 36;
#X connect 76 0 6 37;
#X connect 77 0 6 38;
#X connect 78 0 6 39;
#X connect 79 0 6 40;
#X connect 80 0 6 41;
#X connect 81 0 6 42;
#X connect 82 0 6 43;
#X connect 83 0 6 44;
#X connect 84 0 6 45;
#X connect 85 0 6 46;
#X connect 86 0 6 47;
#X connect 87 0 6 48;
#X connect 88 0 6 49;
#X connect 89 0 6 50;
#X connect 90 0 6 51;
#X connect 91 0 6 52;
#X connect 92 0 6 53;
#X connect 93 0 6 54;
#X connect 94 0 6 55;
#X connect 95 0 6 56;
#X connect 96 0 6 57;
#X connect 97 0 6 58;
#X connect 98 0 6 59;
#X connect 99 0 6 60;
#X connect 100 0 6 61;
#X connect 101 0 6 62;
#X connect 102 0 6 63;
#X connect 103 0 71 0;
#X connect 104 0 72 0;
#X connect 105 0 73 0;
#X connect 106 0 74 0;
#X connect 107 0 75 0;
#X connect 108 0 76 0;
#X connect 109 0 77 0;
#X connect 110 0 78 0;
#X connect 111 0 79 0;
#X connect 112 0 80 0;
#X connect 113 0 81 0;
#X connect 114 0 82 0;
#X connect 115 0 83 0;
#X connect 116 0 84 0;
#X connect 117 0 85 0;
#X connect 118 0 86 0;
#X connect 119 0 87 0;
#X connect 120 0 88 0;
#X connect 121 0 89 0;
#X connect 122 0 90 0;
#X connect 123 0 91 0;
#X connect 124 0 92 0;
#X connect 125 0 93 0;
#X connect 126 0 94 0;
#X connect 127 0 95 0;
#X connect 128 0 96 0;
#X connect 129 0 97 0;
#X connect 130 0 98 0;
#X connect 131 0 99 0;
#X connect 132 0 100 0;
#X connect 133 0 101 0;
#X connect 134 0 102 0;
#X connect 135 0 6 64;
#X connect 136 0 6 65;
#X connect 137 0 6 66;
#X connect 138 0 6 67;
#X connect 139 0 6 68;
#X connect 140 0 6 69;
#X connect 141 0 6 70;
#X connect 142 0 6 71;
#X connect 143 0 6 72;
#X connect 144 0 6 73;
#X connect 145 0 6 74;
#X connect 146 0 6 75;
#X connect 147 0 6 76;
#X connect 148 0 6 77;
#X connect 149 0 6 78;
#X connect 150 0 6 79;
#X connect 151 0 6 80;
#X connect 152 0 6 81;
#X connect 153 0 6 82;
#X connect 154 0 6 83;
#X connect 155 0 6 84;
#X connect 156 0 6 85;
#X connect 157 0 6 86;
#X connect 158 0 6 87;
#X connect 159 0 6 88;
#X connect 160 0 6 89;
#X connect 161 0 6 90;
#X connect 162 0 6 91;
#X connect 163 0 6 92;
#X connect 164 0 6 93;
#X connect 165 0 6 94;
#X connect 166 0 6 95;
#X connect 167 0 135 0;
#X connect 168 0 136 0;
#X connect 169 0 137 0;
#X connect 170 0 138 0;
#X connect 171 0 139 0;
#X connect 172 0 140 0;
#X connect 173 0 141 0;
#X connect 174 0 142 0;
#X connect 175 0 143 0;
#X connect 176 0 144 0;
#X connect 177 0 145 0;
#X connect 178 0 146 0;
#X connect 179 0 147 0;
#X connect 180 0 148 0;
#X connect 181 0 149 0;
#X connect 182 0 150 0;
#X connect 183 0 151 0;
#X connect 184 0 152 0;
#X connect 185 0 153 0;
#X connect 186 0 154 0;
#X connect 187 0 155 0;
#X connect 188 0 156 0;
#X connect 189 0 157 0;
#X connect 190 0 158 0;
#X connect 191 0 159 0;
#X connect 192 0 160 0;
#X connect 193 0 161 0;
#X connect 194 0 162 0;
#X connect 195 0 163 0;
#X connect 196 0 164 0;
#X connect 197 0 165 0;
#X connect 198 0 166 0;
#X connect 199 0 6 96;
#X connect 200 0 6 97;
#X connect 201 0 6 98;
#X connect 202 0 6 99;
#X connect 203 0 6 100;
#X connect 204 0 6 101;
#X connect 205 0 6 102;
#X connect 206 0 6 103;
#X connect 207 0 6 104;
#X connect 208 0 6 105;
#X connect 209 0 6 106;
#X connect 210 0 6 107;
#X connect 211 0 6 108;
#X connect 212 0 6 109;
#X connect 213 0 6 110;
#X connect 214 0 6 111;
#X connect 215 0 6 112;
#X connect 216 0 6 113;
#X connect 217 0 6 114;
#X connect 218 0 6 115;
#X connect 219 0 6 116;
#X connect 220 0 6 117;
#X connect 221 0 6 118;
#X connect 222 0 6 119;
#X connect 223 0 6 120;
#X connect 224 0 6 121;
#X connect 225 0 6 122;
#X connect 226 0 6 123;
#X connect 227 0 6 124;
#X connect 228 0 6 125;
#X connect 229 0 6 126;
#X connect 230 0 6 127;
#X connect 231 0 199 0;
#X connect 232 0 200 0;
#X connect 233 0 201 0;
#X connect 234 0 202 0;
#X connect 235 0 203 0;
#X connect 236 0 204 0;
#X connect 237 0 205 0;
#X connect 238 0 206 0;
#X connect 239 0 207 0;
#X connect 240 0 208 0;
#X connect 241 0 209 0;
#X connect 242 0 210 0;
#X connect 243 0 211 0;
#X connect 244 0 212 0;
#X connect 245 0 213 0;
#X connect 246 0 214 0;
#X connect 247 0 215 0;
#X connect 248 0 216 0;
#X connect 249 0 217 0;
#X connect 250 0 218 0;
#X connect 251 0 219 0;
#X connect 252 0 220 0;
#X connect 253 0 221 0;
#X connect 254 0 222 0;
#X connect 255 0 223 0;
#X connect 256 0 224 0;
#X connect 257 0 225 0;
#X connect 258 0 226 0;
#X connect 259 0 227 0;
#X connect 260 0 228 0;
#X connect 261 0 229 0;
#X connect 262 0 230 0;
#X connect 264 0 4 0;
#X connect 265 0 0 0;
#X connect 266 0 267 0;
#X connect 268 0 267 0;
#X connect 269 0 270 0;
