#N canvas 259 95 1445 683 10;
#X obj 25 617 netsend -u -b;
#X floatatom 25 647 5 0 0 0 - - -, f 5;
#X msg 661 373 \$1;
#X obj 661 55 vsl 15 128 0 0.5 0 0 empty empty empty 0 -9 0 10 -4032
-1 -1 0 1;
#X msg 127 600 connect localhost 9001;
#X obj 30 17 loadbang;
#X obj 48 43 s LB;
#X obj 127 576 r LB;
#X msg 927 298 1;
#X msg 946 337 2;
#N canvas 112 338 528 596 OSC 0;
#X obj 186 328 list trim;
#X obj 186 306 list prepend send;
#X obj 186 284 oscformat line1;
#X obj 186 161 inlet;
#X obj 186 397 outlet;
#X obj 186 225 pack 0 s;
#X obj 292 208 inlet;
#X connect 0 0 4 0;
#X connect 1 0 0 0;
#X connect 2 0 1 0;
#X connect 3 0 5 0;
#X connect 5 0 2 0;
#X connect 6 0 5 1;
#X restore 314 406 pd OSC;
#N canvas 420 293 528 596 OSC 0;
#X obj 186 328 list trim;
#X obj 186 306 list prepend send;
#X obj 186 161 inlet;
#X obj 186 397 outlet;
#X obj 186 225 pack 0 s;
#X obj 292 208 inlet;
#X obj 186 284 oscformat line2;
#X connect 0 0 3 0;
#X connect 1 0 0 0;
#X connect 2 0 4 0;
#X connect 4 0 6 0;
#X connect 5 0 4 1;
#X connect 6 0 1 0;
#X restore 661 402 pd OSC;
#X msg 229 389 set line1;
#N canvas 422 281 528 596 OSC 0;
#X obj 186 328 list trim;
#X obj 186 306 list prepend send;
#X obj 186 229 inlet;
#X obj 186 397 outlet;
#X obj 186 284 oscformat page;
#X connect 0 0 3 0;
#X connect 1 0 0 0;
#X connect 2 0 4 0;
#X connect 4 0 1 0;
#X restore 927 393 pd OSC;
#X msg 858 376 set page;
#X msg 583 385 set line2;
#X obj 375 363 r LB;
#X obj 711 354 r LB;
#X text 272 3 value being sent;
#X text 223 366 adress;
#X msg 314 377 \$1;
#X obj 471 237 dac~;
#X obj 469 163 osc~ 440;
#X obj 30 66 tgl 15 0 empty empty empty 17 7 0 10 -262144 -1 -1 1 1
;
#X msg 30 87 \; pd dsp \$1;
#X obj 532 204 env~;
#X obj 533 253 vu 15 120 empty empty -1 -8 0 10 -66577 -1 1 0;
#X obj 532 228 - 100;
#X msg 375 389 symbol pitch;
#X msg 711 385 symbol volume;
#X text 359 345 value's name;
#X obj 314 432 s network;
#X obj 661 429 s network;
#X obj 927 423 s network;
#X obj 25 586 r network;
#X msg 962 360 3;
#X obj 314 49 tgl 15 0 empty empty empty 17 7 0 10 -262144 -1 -1 1
1;
#X obj 314 73 metro 400;
#X floatatom 314 149 5 0 0 0 - - -, f 5;
#X obj 314 97 random 400;
#X obj 314 119 + 200;
#X obj 314 27 r LB;
#X obj 470 186 *~;
#X msg 998 362 4;
#X msg 1047 364 5;
#X connect 0 0 1 0;
#X connect 2 0 11 0;
#X connect 3 0 2 0;
#X connect 3 0 42 1;
#X connect 4 0 0 0;
#X connect 5 0 6 0;
#X connect 5 0 23 0;
#X connect 7 0 4 0;
#X connect 8 0 13 0;
#X connect 9 0 13 0;
#X connect 10 0 31 0;
#X connect 11 0 32 0;
#X connect 12 0 10 0;
#X connect 13 0 33 0;
#X connect 14 0 13 0;
#X connect 15 0 11 0;
#X connect 16 0 28 0;
#X connect 17 0 29 0;
#X connect 20 0 10 0;
#X connect 22 0 42 0;
#X connect 23 0 24 0;
#X connect 25 0 27 0;
#X connect 27 0 26 0;
#X connect 28 0 10 1;
#X connect 29 0 11 1;
#X connect 34 0 0 0;
#X connect 35 0 13 0;
#X connect 36 0 37 0;
#X connect 37 0 39 0;
#X connect 38 0 20 0;
#X connect 38 0 22 0;
#X connect 39 0 40 0;
#X connect 40 0 38 0;
#X connect 41 0 36 0;
#X connect 42 0 25 0;
#X connect 42 0 21 0;
#X connect 42 0 21 1;
#X connect 44 0 13 0;
