#N canvas 580 274 450 300 10;
#X obj 119 150 display_waveform;
#X obj 118 117 osc~ 440;
#X obj 228 118 tgl 15 0 empty empty empty 17 7 0 10 -262144 -1 -1 1
1;
#X obj 121 78 hsl 128 15 400 1200 0 0 empty empty empty -2 -8 0 10
-262144 -1 -1 0 1;
#X obj 332 77 loadbang;
#X msg 332 99 \; pd dsp 1;
#X connect 1 0 0 0;
#X connect 2 0 0 1;
#X connect 3 0 1 0;
#X connect 4 0 5 0;
