#N canvas 846 174 834 531 10;
#X obj 101 101 cnv 15 298 57 empty empty empty 20 12 0 14 -257985 -66577
0;
#X msg 113 -93 devices;
#X obj 314 34 unpack;
#X obj 314 56 << 3;
#X obj 335 79 +;
#X obj 113 -32 thresh 20;
#X msg 186 -93 open 1;
#X obj 113 -65 comport 1 115200;
#X obj 113 6 route 128 129 130 131 132 133 134, f 34;
#X floatatom 100 131 5 0 0 0 - - -, f 5;
#X floatatom 362 130 5 0 0 0 - - -, f 5;
#N canvas 2 101 450 300 encod 0;
#X obj 111 117 route 1 0;
#X msg 111 150 1;
#X msg 141 150 -1;
#X obj 111 201 clip 0 127;
#X obj 111 179 +;
#X obj 111 85 inlet;
#X obj 111 223 outlet;
#X connect 0 0 1 0;
#X connect 0 1 2 0;
#X connect 1 0 4 0;
#X connect 2 0 4 0;
#X connect 3 0 4 1;
#X connect 3 0 6 0;
#X connect 4 0 3 0;
#X connect 5 0 0 0;
#X restore 113 36 pd encod;
#N canvas 2 107 450 300 encod 0;
#X obj 111 117 route 1 0;
#X msg 111 150 1;
#X msg 141 150 -1;
#X obj 111 201 clip 0 127;
#X obj 111 179 +;
#X obj 111 85 inlet;
#X obj 111 223 outlet;
#X connect 0 0 1 0;
#X connect 0 1 2 0;
#X connect 1 0 4 0;
#X connect 2 0 4 0;
#X connect 3 0 4 1;
#X connect 3 0 6 0;
#X connect 4 0 3 0;
#X connect 5 0 0 0;
#X restore 161 68 pd encod;
#X floatatom 161 131 5 0 0 0 - - -, f 5;
#X obj 243 128 bng 15 250 50 0 empty empty empty 17 7 0 10 -262144
-1 -1;
#X obj 316 128 bng 15 250 50 0 empty empty empty 17 7 0 10 -262144
-1 -1;
#X obj 186 -125 loadbang;
#X obj 100 180 outlet;
#X obj 161 180 outlet;
#X obj 243 180 outlet;
#X obj 316 208 outlet;
#X obj 362 179 outlet;
#X obj 516 23 route 0 1;
#X msg 516 61 0;
#X msg 546 61 1;
#X obj 516 140 OSC_postalsend;
#X msg 652 123 set cursor;
#X obj 618 53 bng 15 250 50 0 empty empty empty 17 7 0 10 -262144 -1
-1;
#X obj 482 72 bng 15 250 50 0 empty empty empty 17 7 0 10 -262144 -1
-1;
#X obj 233 295 OSC_postalsend;
#X msg 362 278 set clic;
#X connect 1 0 7 0;
#X connect 2 0 3 0;
#X connect 2 1 4 1;
#X connect 3 0 4 0;
#X connect 4 0 10 0;
#X connect 5 0 8 0;
#X connect 6 0 7 0;
#X connect 7 0 5 0;
#X connect 8 0 11 0;
#X connect 8 0 22 0;
#X connect 8 1 12 0;
#X connect 8 4 14 0;
#X connect 8 5 15 0;
#X connect 8 6 2 0;
#X connect 9 0 17 0;
#X connect 10 0 21 0;
#X connect 11 0 9 0;
#X connect 12 0 13 0;
#X connect 13 0 18 0;
#X connect 14 0 19 0;
#X connect 14 0 29 0;
#X connect 15 0 20 0;
#X connect 16 0 6 0;
#X connect 16 0 26 0;
#X connect 16 0 30 0;
#X connect 22 0 23 0;
#X connect 22 0 28 0;
#X connect 22 1 24 0;
#X connect 22 1 27 0;
#X connect 23 0 25 0;
#X connect 24 0 25 0;
#X connect 26 0 25 3;
#X connect 30 0 29 3;
#X coords 0 -1 1 1 300 60 2 100 100;
