#N canvas 695 305 450 300 10;
#X obj 61 152 netsend -u -b;
#X floatatom 61 182 5 0 0 0 - - -, f 5;
#X msg 163 135 connect localhost 9001;
#X obj 61 121 r network;
#X obj 163 112 loadbang;
#X text 115 197 if output is "1" \, UDP conenction has succeed;
#X connect 0 0 1 0;
#X connect 2 0 0 0;
#X connect 3 0 0 0;
#X connect 4 0 2 0;
