#N canvas 1019 395 529 300 10;
#X obj 79 212 list trim;
#X obj 79 190 list prepend send;
#X obj 79 236 s network;
#X msg 79 113 \$1;
#X obj 79 168 oscformat;
#X obj 79 30 inlet value;
#X obj 140 59 inlet type;
#X obj 284 120 inlet name;
#X obj 388 151 inlet address;
#X obj 140 81 route 0 1, f 11;
#X msg 140 103 symbol i;
#X msg 212 103 symbol f;
#X obj 79 137 pack 0 s s, f 18;
#X obj 140 7 loadbang;
#X connect 0 0 2 0;
#X connect 1 0 0 0;
#X connect 3 0 12 0;
#X connect 4 0 1 0;
#X connect 5 0 3 0;
#X connect 6 0 9 0;
#X connect 7 0 12 2;
#X connect 8 0 4 0;
#X connect 9 0 10 0;
#X connect 9 1 11 0;
#X connect 10 0 12 1;
#X connect 11 0 12 1;
#X connect 12 0 4 0;
#X connect 13 0 10 0;
