#N canvas 971 79 1464 957 10;
#X obj 168 143 delwrite~ delay-\$0 4000;
#X obj 200 318 vd~ delay-\$0;
#X floatatom 200 274 5 0 0 0 - - -, f 5;
#X obj 200 294 sig~;
#X obj 275 390 s~ fdbck-\$0;
#X obj 221 113 r~ fdbck-\$0;
#X obj 80 239 loadbang;
#X obj 80 258 f \$1;
#X text 113 259 delay time;
#X obj 275 369 *~;
#X obj 371 299 loadbang;
#X obj 371 318 f \$2;
#X text 406 319 feedback;
#X obj 363 236 inlet feedback;
#X obj 483 351 inlet volume;
#X obj 611 439 inlet pan;
#X obj 168 72 inlet~ audioin;
#X floatatom 462 432 8 0 0 0 - - -, f 8;
#X msg 462 451 \$1 25;
#X obj 462 473 line~;
#X obj 199 489 *~;
#X text 535 433 volume;
#X obj 199 610 *~;
#X obj 294 609 *~;
#X obj 294 630 outlet~ right;
#X obj 199 631 outlet~ left;
#X obj 499 538 hsl 128 15 0 1 0 0 empty empty empty -2 -8 0 10 -262144
-1 -1 6800 1;
#X floatatom 496 558 5 0 0 0 - - -, f 5;
#X obj 314 553 expr 1 - $f1;
#X floatatom 314 574 5 0 0 0 - - -, f 5;
#X obj 254 198 inlet delaytime;
#X floatatom 311 334 5 0 0 0 - - -, f 5;
#X obj 541 395 loadbang;
#X obj 541 416 f \$3;
#X obj 655 501 loadbang;
#X obj 655 522 f \$4;
#X connect 1 0 9 0;
#X connect 1 0 20 0;
#X connect 2 0 3 0;
#X connect 3 0 1 0;
#X connect 5 0 0 0;
#X connect 6 0 7 0;
#X connect 7 0 2 0;
#X connect 9 0 4 0;
#X connect 10 0 11 0;
#X connect 11 0 31 0;
#X connect 13 0 31 0;
#X connect 14 0 17 0;
#X connect 15 0 26 0;
#X connect 16 0 0 0;
#X connect 17 0 18 0;
#X connect 18 0 19 0;
#X connect 19 0 20 1;
#X connect 20 0 22 0;
#X connect 20 0 23 0;
#X connect 22 0 25 0;
#X connect 23 0 24 0;
#X connect 26 0 27 0;
#X connect 26 0 28 0;
#X connect 27 0 23 1;
#X connect 28 0 29 0;
#X connect 29 0 22 1;
#X connect 30 0 2 0;
#X connect 31 0 9 1;
#X connect 32 0 33 0;
#X connect 33 0 17 0;
#X connect 34 0 35 0;
#X connect 35 0 26 0;
#X coords 0 957 1 956 150 100 0;
