#N canvas 174 193 1533 560 10;
#X obj 101 102 cnv 15 298 97 empty empty empty 20 12 0 14 -4032 -66577
0;
#X obj 18 16 loadbang;
#X obj 18 38 s LB;
#X floatatom 128 123 5 0 0 0 - - -, f 5;
#X floatatom 128 168 5 0 0 0 - - -, f 5;
#X obj 952 168 prepend symbol;
#X obj 952 145 inlet name1;
#X obj 1065 168 prepend symbol;
#X obj 1065 145 inlet name2;
#X floatatom 338 123 5 0 0 0 - - -, f 5;
#X floatatom 338 168 5 0 0 0 - - -, f 5;
#X obj 1175 168 prepend symbol;
#X obj 1175 145 inlet name1;
#X obj 1288 168 prepend symbol;
#X obj 1288 145 inlet name2;
#X obj 174 122 tgl 15 0 empty empty empty 17 7 0 10 -4032 -1 -1 1 1
;
#X obj 174 167 tgl 15 0 empty empty empty 17 7 0 10 -4032 -1 -1 0 1
;
#X obj 311 167 tgl 15 0 empty empty empty 17 7 0 10 -4032 -1 -1 0 1
;
#X obj 311 122 tgl 15 0 empty empty empty 17 7 0 10 -4032 -1 -1 1 1
;
#X obj 54 497 OSC_postalsend;
#X obj 542 152 inlet value1;
#X obj 542 174 s value1;
#X obj 54 374 r value1;
#X obj 85 401 r type1;
#X obj 117 430 r name1;
#X obj 174 212 s type1;
#X obj 311 212 s type2;
#X obj 174 237 s type3;
#X obj 311 237 s type4;
#X obj 952 190 s name1;
#X obj 1065 190 s name2;
#X obj 1175 190 s name3;
#X obj 1288 190 s name4;
#X obj 147 454 r LB;
#X msg 147 476 set value1;
#X obj 244 497 OSC_postalsend;
#X obj 337 454 r LB;
#X obj 434 497 OSC_postalsend;
#X obj 527 454 r LB;
#X obj 624 497 OSC_postalsend;
#X obj 717 454 r LB;
#X obj 244 374 r value2;
#X obj 275 401 r type2;
#X obj 307 430 r name2;
#X msg 337 476 set value2;
#X obj 434 374 r value3;
#X obj 465 401 r type3;
#X obj 497 430 r name3;
#X msg 527 476 set value3;
#X obj 624 374 r value4;
#X obj 655 401 r type4;
#X obj 687 430 r name4;
#X msg 717 476 set value4;
#X obj 128 60 r value1;
#X obj 338 60 r value2;
#X obj 21 151 r value3;
#X obj 426 151 r value4;
#X obj 642 174 s value2;
#X obj 742 174 s value3;
#X obj 842 174 s value4;
#X obj 642 152 inlet value2;
#X obj 742 152 inlet value3;
#X obj 842 152 inlet value4;
#X connect 1 0 2 0;
#X connect 5 0 29 0;
#X connect 6 0 5 0;
#X connect 7 0 30 0;
#X connect 8 0 7 0;
#X connect 11 0 31 0;
#X connect 12 0 11 0;
#X connect 13 0 32 0;
#X connect 14 0 13 0;
#X connect 15 0 25 0;
#X connect 16 0 27 0;
#X connect 17 0 28 0;
#X connect 18 0 26 0;
#X connect 20 0 21 0;
#X connect 22 0 19 0;
#X connect 23 0 19 1;
#X connect 24 0 19 2;
#X connect 33 0 34 0;
#X connect 34 0 19 3;
#X connect 36 0 44 0;
#X connect 38 0 48 0;
#X connect 40 0 52 0;
#X connect 41 0 35 0;
#X connect 42 0 35 1;
#X connect 43 0 35 2;
#X connect 44 0 35 3;
#X connect 45 0 37 0;
#X connect 46 0 37 1;
#X connect 47 0 37 2;
#X connect 48 0 37 3;
#X connect 49 0 39 0;
#X connect 50 0 39 1;
#X connect 51 0 39 2;
#X connect 52 0 39 3;
#X connect 53 0 3 0;
#X connect 54 0 9 0;
#X connect 55 0 4 0;
#X connect 56 0 10 0;
#X connect 60 0 57 0;
#X connect 61 0 58 0;
#X connect 62 0 59 0;
#X coords 0 -1 1 1 300 100 2 100 100;
