#N canvas 484 210 1809 616 10;
#N canvas 0 50 450 250 (subpatch) 0;
#X array ar7 128 float 3;
#A 0 0 0 0 0 0 0 0 0 0 0 0 0 0 0 0 0 0 0 0 0 0 0 0 0 0 0 0 0 0 0 0
0 0 0 0 0 0 0 0 0 0 0 0 0 0 0 0 0 0 0 0 0 0 0 0 0 0 0 0 0 0 0 0 0 0
0 0 0 0 0 0 0 0 0 0 0 0 0 0 0 0 0 0 0 0 0 0 0 0 0 0 0 0 0 0 0 0 0 0
0 0 0 0 0 0 0 0 0 0 0 0 0 0 0 0 0 0 0 0 0 0 0 0 0 0 0 0 0;
#X coords 0 1 128 -1 200 140 1 0 0;
#X restore 9 418 graph;
#X obj 264 380 tabread ar7;
#X obj 264 452 list prepend;
#X obj 368 454 t l;
#X obj 7 174 bng 15 250 50 0 empty empty empty 17 7 0 10 -262144 -1
-1;
#X msg 339 347 0;
#X obj 366 348 bng 15 250 50 0 empty empty empty 17 7 0 10 -262144
-1 -1;
#X obj 264 334 +;
#X msg 264 311 1;
#X floatatom 264 358 5 0 0 0 - - -, f 5;
#X obj 264 500 spigot;
#X obj 303 479 tgl 15 0 empty empty empty 17 7 0 10 -262144 -1 -1 1
1;
#X obj 7 207 t b b b b b b b b b b b b b b b b b b b b b b b b b b
b b b b b b b b b b b b b b b b b b b b b b b b b b b b b b b b b b
b b b b b b b b b b b b b b b b b b b b b b b b b b b b b b b b b b
b b b b b b b b b b b b b b b b b b b b b b b b b b b b b b b b b b
b b b, f 47;
#X obj 264 402 scale -1 1 0 32;
#X obj 264 424 int;
#X obj 415 462 loadbang;
#X obj 264 571 list trim;
#X obj 264 549 list prepend send;
#X obj 264 527 oscformat table;
#X obj 42 575 network_postoffice;
#X obj 264 593 s network;
#X obj 105 111 tgl 15 0 empty empty empty 17 7 0 10 -262144 -1 -1 1
1;
#X obj 525 181 tabwrite~ ar7;
#X obj 638 140 bng 15 250 50 0 empty empty empty 17 7 0 10 -262144
-1 -1;
#X obj 501 168 bng 15 250 50 0 empty empty empty 17 7 0 10 -262144
-1 -1;
#X obj 105 131 metro 30;
#X obj 105 82 loadbang;
#X obj 584 66 inlet;
#X obj 525 43 inlet~;
#X connect 1 0 13 0;
#X connect 2 0 3 0;
#X connect 2 0 10 0;
#X connect 3 0 2 1;
#X connect 4 0 12 0;
#X connect 5 0 9 0;
#X connect 6 0 2 1;
#X connect 7 0 9 0;
#X connect 8 0 7 0;
#X connect 9 0 1 0;
#X connect 9 0 7 1;
#X connect 10 0 18 0;
#X connect 11 0 10 1;
#X connect 12 0 8 0;
#X connect 12 1 11 0;
#X connect 12 2 8 0;
#X connect 12 3 8 0;
#X connect 12 4 8 0;
#X connect 12 5 8 0;
#X connect 12 6 8 0;
#X connect 12 7 8 0;
#X connect 12 8 8 0;
#X connect 12 9 8 0;
#X connect 12 10 8 0;
#X connect 12 11 8 0;
#X connect 12 12 8 0;
#X connect 12 13 8 0;
#X connect 12 14 8 0;
#X connect 12 15 8 0;
#X connect 12 16 8 0;
#X connect 12 17 8 0;
#X connect 12 18 8 0;
#X connect 12 19 8 0;
#X connect 12 20 8 0;
#X connect 12 21 8 0;
#X connect 12 22 8 0;
#X connect 12 23 8 0;
#X connect 12 24 8 0;
#X connect 12 25 8 0;
#X connect 12 26 8 0;
#X connect 12 27 8 0;
#X connect 12 28 8 0;
#X connect 12 29 8 0;
#X connect 12 30 8 0;
#X connect 12 31 8 0;
#X connect 12 32 8 0;
#X connect 12 33 8 0;
#X connect 12 34 8 0;
#X connect 12 35 8 0;
#X connect 12 36 8 0;
#X connect 12 37 8 0;
#X connect 12 38 8 0;
#X connect 12 39 8 0;
#X connect 12 40 8 0;
#X connect 12 41 8 0;
#X connect 12 42 8 0;
#X connect 12 43 8 0;
#X connect 12 44 8 0;
#X connect 12 45 8 0;
#X connect 12 46 8 0;
#X connect 12 47 8 0;
#X connect 12 48 8 0;
#X connect 12 49 8 0;
#X connect 12 50 8 0;
#X connect 12 51 8 0;
#X connect 12 52 8 0;
#X connect 12 53 8 0;
#X connect 12 54 8 0;
#X connect 12 55 8 0;
#X connect 12 56 8 0;
#X connect 12 57 8 0;
#X connect 12 58 8 0;
#X connect 12 59 8 0;
#X connect 12 60 8 0;
#X connect 12 61 8 0;
#X connect 12 62 8 0;
#X connect 12 63 8 0;
#X connect 12 64 8 0;
#X connect 12 65 8 0;
#X connect 12 66 8 0;
#X connect 12 67 8 0;
#X connect 12 68 8 0;
#X connect 12 69 8 0;
#X connect 12 70 8 0;
#X connect 12 71 8 0;
#X connect 12 72 8 0;
#X connect 12 73 8 0;
#X connect 12 74 8 0;
#X connect 12 75 8 0;
#X connect 12 76 8 0;
#X connect 12 77 8 0;
#X connect 12 78 8 0;
#X connect 12 79 8 0;
#X connect 12 80 8 0;
#X connect 12 81 8 0;
#X connect 12 82 8 0;
#X connect 12 83 8 0;
#X connect 12 84 8 0;
#X connect 12 85 8 0;
#X connect 12 86 8 0;
#X connect 12 87 8 0;
#X connect 12 88 8 0;
#X connect 12 89 8 0;
#X connect 12 90 8 0;
#X connect 12 91 8 0;
#X connect 12 92 8 0;
#X connect 12 93 8 0;
#X connect 12 94 8 0;
#X connect 12 95 8 0;
#X connect 12 96 8 0;
#X connect 12 97 8 0;
#X connect 12 98 8 0;
#X connect 12 99 8 0;
#X connect 12 100 8 0;
#X connect 12 101 8 0;
#X connect 12 102 8 0;
#X connect 12 103 8 0;
#X connect 12 104 8 0;
#X connect 12 105 8 0;
#X connect 12 106 8 0;
#X connect 12 107 8 0;
#X connect 12 108 8 0;
#X connect 12 109 8 0;
#X connect 12 110 8 0;
#X connect 12 111 8 0;
#X connect 12 112 8 0;
#X connect 12 113 8 0;
#X connect 12 114 8 0;
#X connect 12 115 8 0;
#X connect 12 116 8 0;
#X connect 12 117 8 0;
#X connect 12 118 8 0;
#X connect 12 119 8 0;
#X connect 12 120 8 0;
#X connect 12 121 8 0;
#X connect 12 122 8 0;
#X connect 12 123 8 0;
#X connect 12 124 8 0;
#X connect 12 125 8 0;
#X connect 12 126 8 0;
#X connect 12 127 8 0;
#X connect 12 128 5 0;
#X connect 12 129 6 0;
#X connect 12 130 11 0;
#X connect 13 0 14 0;
#X connect 14 0 2 0;
#X connect 15 0 11 0;
#X connect 16 0 20 0;
#X connect 17 0 16 0;
#X connect 18 0 17 0;
#X connect 21 0 25 0;
#X connect 23 0 22 0;
#X connect 24 0 22 0;
#X connect 25 0 4 0;
#X connect 25 0 24 0;
#X connect 26 0 21 0;
#X connect 27 0 21 0;
#X connect 28 0 22 0;
