#N canvas 448 326 1065 469 10;
#X msg 159 288 symbol pitch;
#X obj 96 338 OSC_postalsend;
#X text 22 17 Sends an OSC message to network_postoffice \, which handles
the UDP communication. Message is send each time first inlet changes.
;
#X msg 191 313 set ohio;
#X text 23 172 Fourth inlet : sets the OSC address.;
#X text 23 74 First inlet : value being send (mostly numerical);
#X msg 96 230 440;
#X text 13 367 This will send [440 \, i \, pitch] to OSC address "ohio"
;
#X obj 18 438 network_postoffice;
#X obj 408 395 OSC_postalsend;
#X msg 408 287 0.45;
#X msg 471 345 symbol volume;
#X msg 503 370 set minnesota;
#X text 325 424 This will send [0.45 \, f \, volume] to OSC address
"minnesota";
#X msg 127 258 symbol i;
#X msg 439 315 symbol f;
#X text 22 101 Second inlet : value's type. i for int and f for float.
;
#X text 23 133 Third inlet : second argument of the OSC message \,
usually name of value.;
#X connect 0 0 1 2;
#X connect 3 0 1 3;
#X connect 6 0 1 0;
#X connect 10 0 9 0;
#X connect 11 0 9 2;
#X connect 12 0 9 3;
#X connect 14 0 1 1;
#X connect 15 0 9 1;
