#N canvas 596 272 1536 678 10;
#X obj 101 102 cnv 15 198 96 empty empty empty 20 12 0 14 -260097 -66577
0;
#X floatatom 251 116 5 0 0 0 - - -, f 5;
#X msg -167 199 \$1 25;
#X obj -167 220 line~;
#X floatatom 252 147 5 0 0 0 - - -, f 5;
#X obj -120 279 line~;
#X floatatom 252 179 5 0 0 0 - - -, f 5;
#X msg -73 314 \$1 25;
#X obj -73 335 line~;
#X obj -214 363 reson~ 1 2500 10, f 24;
#X obj -214 420 outlet~;
#X obj -213 121 inlet~ audio;
#X obj 106 116 hsl 128 15 0 10 0 0 empty empty Gain -2 -8 0 10 -262144
-1 -1 4400 1;
#X obj 106 148 hsl 128 15 20 5000 0 0 empty empty Frequency -2 -8 0
10 -262144 -1 -1 5300 1;
#X obj 106 180 hsl 128 15 0 100 0 0 empty empty Q -2 -8 0 10 -262144
-1 -1 12700 1;
#X msg -120 257 \$1 20;
#X text -464 52 placeholder;
#X obj -128 121 inlet freq;
#X connect 1 0 2 0;
#X connect 2 0 3 0;
#X connect 3 0 9 1;
#X connect 4 0 15 0;
#X connect 5 0 9 2;
#X connect 6 0 7 0;
#X connect 7 0 8 0;
#X connect 8 0 9 3;
#X connect 9 0 10 0;
#X connect 11 0 9 0;
#X connect 12 0 1 0;
#X connect 13 0 4 0;
#X connect 14 0 6 0;
#X connect 15 0 5 0;
#X coords 0 -1 1 1 200 100 2 100 100;
