#N canvas 622 340 897 538 10;
#X obj 363 303 singletap 500 0.5 1 0.5;
#X obj 363 324 outlet~;
#X obj 498 324 outlet~;
#X obj 363 42 inlet~;
#X obj 163 111 hsl 128 15 0 2000 0 0 empty empty empty -2 -8 0 10 -262144
-1 -1 12700 1;
#X obj 163 131 hsl 128 15 0 1.05 0 0 empty empty empty -2 -8 0 10 -262144
-1 -1 12700 1;
#X obj 163 151 hsl 128 15 0 1 0 0 empty empty empty -2 -8 0 10 -262144
-1 -1 0 1;
#X obj 163 171 hsl 128 15 0 1 0 0 empty empty empty -2 -8 0 10 -262144
-1 -1 0 1;
#X floatatom 310 111 5 0 0 0 - - -, f 5;
#X floatatom 310 131 5 0 0 0 - - -, f 5;
#X floatatom 310 151 5 0 0 0 - - -, f 5;
#X floatatom 310 171 5 0 0 0 - - -, f 5;
#X text 103 111 time;
#X text 103 131 feedback;
#X text 103 151 volume;
#X text 103 171 pan;
#X obj 415 90 inlet time;
#X obj 435 110 inlet feedback;
#X obj 455 130 inlet volume;
#X obj 475 150 inlet pan;
#X obj 188 0 loadbang;
#X msg 184 43 500;
#X msg 213 43 0.5;
#X msg 271 43 0.5;
#X msg 242 43 1;
#X connect 0 0 1 0;
#X connect 0 1 2 0;
#X connect 3 0 0 0;
#X connect 4 0 8 0;
#X connect 5 0 9 0;
#X connect 6 0 10 0;
#X connect 7 0 11 0;
#X connect 8 0 0 1;
#X connect 9 0 0 2;
#X connect 10 0 0 3;
#X connect 11 0 0 4;
#X connect 16 0 8 0;
#X connect 17 0 9 0;
#X connect 18 0 10 0;
#X connect 19 0 11 0;
#X connect 20 0 21 0;
#X connect 20 0 22 0;
#X connect 20 0 24 0;
#X connect 20 0 23 0;
#X connect 21 0 4 0;
#X connect 22 0 5 0;
#X connect 23 0 7 0;
#X connect 24 0 6 0;
#X coords 0 -1 1 1 250 100 2 100 100;
